<svg width="150" height="150" viewBox="0 0 150 150" fill="none" xmlns="http://www.w3.org/2000/svg">
<g clip-path="url(#clip0_405_1231)">
<rect width="150" height="150" rx="75" fill="url(#paint0_linear_405_1231)"/>
<circle cx="92.8571" cy="35.7143" r="12.5" fill="white"/>
<path d="M23.0599 27.0864C-14.4182 35.2506 -16.0714 87.4636 -16.0714 87.4636V121.297H193.79V38.0453C160.634 38.0453 153.571 77.7723 110.392 77.7723C62.5 77.7723 55.8279 22.2313 23.0599 27.0864Z" fill="#EDB9BC"/>
<path d="M161.607 101.787V95.5371C161.607 95.5371 150.76 87.12 131.25 84.8228C116.071 83.0357 114.018 94.9933 102.679 95.5371C81.2968 96.5625 77.6786 78.5728 49.1071 78.5728C26.7857 78.5728 13.3929 99.1086 -2.67857 99.1086C-13.3929 99.1086 -44.6429 87.5014 -44.6429 87.5014V101.787H161.607Z" fill="url(#paint1_linear_405_1231)"/>
<path d="M3.57144 101.786H151.786V169.728H3.57144V101.786Z" fill="url(#paint2_linear_405_1231)"/>
<rect opacity="0.3" x="-1.78571" y="110.714" width="150" height="3.57143" fill="url(#paint3_linear_405_1231)"/>
<rect opacity="0.3" x="3.57144" y="119.643" width="150" height="1.78571" fill="url(#paint4_linear_405_1231)"/>
<path d="M46.3216 182.607C79.5081 172.989 106.171 182.494 106.436 182.591C106.673 182.679 106.94 182.644 107.148 182.498C107.356 182.352 107.48 182.115 107.48 181.861V174.893C107.48 174.544 107.246 174.237 106.909 174.144C106.822 174.12 104.173 173.412 99.6801 172.641V164.935H102.821C103.25 164.935 103.598 164.587 103.598 164.158V159.142C103.598 158.713 103.25 158.365 102.821 158.365H99.6801V146.037C100.44 145.748 100.985 145.017 100.985 144.157V135.758H100.996C101.425 135.758 101.773 135.411 101.773 134.982V121.263C101.773 120.834 101.425 120.486 100.996 120.486H91.2727C90.8437 120.486 90.4958 120.834 90.4958 121.263V134.982C90.4958 135.411 90.8437 135.758 91.2727 135.758H91.2841V144.157C91.2841 145.04 91.8578 145.783 92.649 146.056V158.365H60.1597V146.056C60.9508 145.783 61.5245 145.04 61.5245 144.157V135.758H61.5359C61.965 135.758 62.3128 135.411 62.3128 134.982V121.263C62.3128 120.834 61.965 120.486 61.5359 120.486H51.8126C51.3835 120.486 51.0357 120.834 51.0357 121.263V134.982C51.0357 135.411 51.3835 135.758 51.8126 135.758H51.824V144.157C51.824 145.017 52.3683 145.748 53.1285 146.037V158.365H49.9872C49.5581 158.365 49.2103 158.713 49.2103 159.142V164.158C49.2103 164.587 49.5581 164.935 49.9872 164.935H53.1285V172.756C50.7414 173.206 48.3331 173.729 45.9096 174.36C45.5674 174.449 45.3285 174.758 45.3285 175.112V181.861C45.3285 182.106 45.4434 182.335 45.6388 182.482C45.8341 182.629 46.0879 182.675 46.3216 182.607ZM72.7197 164.935L68.0584 170.918C65.4871 171.076 62.8487 171.32 60.1597 171.658V164.935H72.7197ZM80.2966 164.935H92.649V171.628C90.3053 171.352 87.7262 171.111 84.9559 170.937L80.2966 164.935Z" fill="#DFA2A2"/>
<path d="M106.206 59.5135C72.9656 69.1473 46.2595 59.6271 45.9939 59.5302C45.7564 59.4421 45.4893 59.477 45.2807 59.6229C45.0725 59.7688 44.9482 60.0067 44.9482 60.2609V67.24C44.9482 67.5903 45.1827 67.8977 45.5205 67.9904C45.6075 68.0143 48.261 68.7236 52.7609 69.4965V77.2146H49.6145C49.1848 77.2146 48.8364 77.563 48.8364 77.9928V83.0166C48.8364 83.4463 49.1848 83.7947 49.6145 83.7947H52.7609V96.1433C51.9995 96.4326 51.4543 97.1644 51.4543 98.0261V106.438H51.4429C51.0131 106.438 50.6647 106.787 50.6647 107.217V120.957C50.6647 121.387 51.0131 121.735 51.4429 121.735H61.182C61.6117 121.735 61.9601 121.387 61.9601 120.957V107.217C61.9601 106.787 61.6117 106.438 61.182 106.438H61.1706V98.0261C61.1706 97.1422 60.5959 96.3973 59.8035 96.1245V83.7947H92.3454V96.1245C91.5529 96.3973 90.9783 97.1422 90.9783 98.0261V106.438H90.9669C90.5372 106.438 90.1888 106.787 90.1888 107.217V120.957C90.1888 121.387 90.5372 121.735 90.9669 121.735H100.706C101.136 121.735 101.484 121.387 101.484 120.957V107.217C101.484 106.787 101.136 106.438 100.706 106.438H100.695V98.0261C100.695 97.1644 100.149 96.4326 99.3879 96.1433V83.7947H102.534C102.964 83.7947 103.313 83.4463 103.313 83.0166V77.9928C103.313 77.563 102.964 77.2146 102.534 77.2146H99.3879V69.3805C101.779 68.9297 104.191 68.4058 106.619 67.7742C106.961 67.6849 107.201 67.3752 107.201 67.0211V60.2609C107.201 60.0162 107.086 59.7859 106.89 59.6389C106.694 59.4915 106.44 59.4462 106.206 59.5135ZM79.765 77.2146L84.4339 71.2214C87.0094 71.0633 89.652 70.819 92.3454 70.4803V77.2146H79.765ZM72.1759 77.2146H59.8035V70.5107C62.151 70.7867 64.7342 71.0289 67.509 71.2029L72.1759 77.2146Z" fill="#D6111D"/>
<path d="M108.47 62.0863L108.913 59.8697C109.023 59.3197 108.538 58.8334 107.988 58.9445C103.792 59.7926 88.9523 62.595 76.0744 62.595C63.1949 62.595 48.073 59.7919 43.7941 58.9442C43.2384 58.8341 42.7535 59.3331 42.8763 59.8861L43.2841 61.7211C43.3498 62.0168 43.5733 62.2455 43.8699 62.307C46.6411 62.8812 61.0437 65.7076 76.0744 65.7076C91.0447 65.7076 105.08 63.2154 107.868 62.6911C108.177 62.633 108.408 62.3943 108.47 62.0863Z" fill="#323136"/>
<path d="M84.4396 71.1732L80.5488 77.2243H71.4055L67.5147 71.1547C67.5147 71.1547 69.4601 71.5437 76.0744 71.5437C82.2997 71.5437 84.4396 71.1732 84.4396 71.1732Z" fill="#323136"/>
<path d="M49.6145 77.2148H52.7609H99.3879H102.534C102.964 77.2148 103.312 77.5632 103.312 77.9929V83.0167C103.312 83.4465 102.964 83.7949 102.534 83.7949H99.3879H52.7609H49.6145C49.1847 83.7949 48.8363 83.4465 48.8363 83.0167V77.9929C48.8363 77.5632 49.1847 77.2148 49.6145 77.2148Z" fill="#F14516"/>
</g>
<defs>
<linearGradient id="paint0_linear_405_1231" x1="47.3214" y1="9.76938e-07" x2="88.3928" y2="103.571" gradientUnits="userSpaceOnUse">
<stop stop-color="#FFCBD7"/>
<stop offset="1" stop-color="#F9CBBD"/>
</linearGradient>
<linearGradient id="paint1_linear_405_1231" x1="58.0357" y1="91.9643" x2="58.9286" y2="127.679" gradientUnits="userSpaceOnUse">
<stop stop-color="#DEA9AC"/>
<stop offset="0.558846" stop-color="#CEA196" stop-opacity="0.06"/>
</linearGradient>
<linearGradient id="paint2_linear_405_1231" x1="74.9999" y1="189.711" x2="74.9999" y2="87.7976" gradientUnits="userSpaceOnUse">
<stop stop-color="#F9BEBD"/>
<stop offset="0.997648" stop-color="#F9CBBD"/>
</linearGradient>
<linearGradient id="paint3_linear_405_1231" x1="73.2143" y1="110.714" x2="73.2143" y2="114.116" gradientUnits="userSpaceOnUse">
<stop stop-color="#EFF7FF"/>
<stop offset="0.997648" stop-color="white"/>
</linearGradient>
<linearGradient id="paint4_linear_405_1231" x1="78.5714" y1="119.643" x2="78.5714" y2="121.344" gradientUnits="userSpaceOnUse">
<stop stop-color="#EFF7FF"/>
<stop offset="0.997648" stop-color="white"/>
</linearGradient>
<clipPath id="clip0_405_1231">
<rect width="150" height="150" rx="75" fill="white"/>
</clipPath>
</defs>
</svg>
